<svg width="70" height="62" viewBox="0 0 70 62" fill="none" xmlns="http://www.w3.org/2000/svg">
<path d="M49.2188 14.3555V22.5586C49.2188 23.6906 48.3 24.6094 47.168 24.6094C46.0359 24.6094 45.1172 23.6906 45.1172 22.5586V14.3555C45.1172 13.2234 46.0359 12.3047 47.168 12.3047C48.3 12.3047 49.2188 13.2234 49.2188 14.3555Z" fill="#FABE2C"/>
<path d="M57.4219 10.2539V22.5586C57.4219 23.6906 56.5031 24.6094 55.3711 24.6094C54.2391 24.6094 53.3203 23.6906 53.3203 22.5586V10.2539C53.3203 9.12188 54.2391 8.20312 55.3711 8.20312C56.5031 8.20312 57.4219 9.12188 57.4219 10.2539Z" fill="#6AA9FF"/>
<path d="M65.625 6.15234V22.5586C65.625 23.6906 64.7062 24.6094 63.5742 24.6094C62.4422 24.6094 61.5234 23.6906 61.5234 22.5586V6.15234C61.5234 5.02031 62.4422 4.10156 63.5742 4.10156C64.7062 4.10156 65.625 5.02031 65.625 6.15234Z" fill="#FF435B"/>
<path d="M36.914 2.05078V28.7109L19.5508 27.6172L6.39844 19.075C11.107 7.58379 22.2947 0 34.8633 0C35.9953 0 36.914 0.91875 36.914 2.05078Z" fill="#FED843"/>
<path d="M65.625 30.7617C65.625 47.0764 52.9566 60.4023 36.9141 61.4551C36.2359 61.5002 35.5523 61.5234 34.8633 61.5234C29.7377 61.5234 24.7283 60.2561 20.259 57.8416L24.3469 41.1523L36.9141 28.7109H63.5742C64.7062 28.7109 65.625 29.6297 65.625 30.7617Z" fill="#FF7B4A"/>
<path d="M65.625 30.7617C65.625 47.0764 52.9566 60.4023 36.9141 61.4551V28.7109H63.5742C64.7062 28.7109 65.625 29.6297 65.625 30.7617Z" fill="#FF435B"/>
<path d="M36.9141 28.7109C35.5255 31.1396 19.978 58.3326 19.209 59.6778C18.6074 60.6403 17.34 60.9287 16.3816 60.3285C6.42851 54.0942 0 43.0815 0 30.7617C0 26.991 0.598828 23.2805 1.78008 19.734C2.13828 18.6607 3.30039 18.0783 4.375 18.4365C4.39701 18.4435 36.6235 28.6192 36.9141 28.7109Z" fill="#7ED8F6"/>
<path d="M70 22.5586C70 23.6906 69.0812 24.6094 67.9492 24.6094H43.0664C41.9344 24.6094 41.0156 23.6906 41.0156 22.5586C41.0156 21.4266 41.9344 20.5078 43.0664 20.5078H67.9492C69.0812 20.5078 70 21.4266 70 22.5586Z" fill="#61729B"/>
</svg>
