<svg width="70" height="70" viewBox="0 0 70 70" fill="none" xmlns="http://www.w3.org/2000/svg">
<path d="M1.93201 0H69.5987V28H1.93201V0Z" fill="#8CE2FF"/>
<path d="M36.932 5.83334H62.5987V8.16668H36.932V5.83334Z" fill="#565151"/>
<path d="M40.432 12.8333H66.0987V15.1667H40.432V12.8333Z" fill="#565151"/>
<path d="M35.7654 19.8333H61.432V22.1667H35.7654V19.8333Z" fill="#565151"/>
<path d="M33.1299 6.07032L18.3405 11.6667H16.9477C19.2259 10.4614 20.0955 7.63744 18.8902 5.35923C17.6849 3.08102 14.861 2.21142 12.5828 3.41673C10.3046 4.62205 9.43495 7.44596 10.6403 9.72417C11.0782 10.5519 11.755 11.2287 12.5828 11.6667H10.0797C7.27968 11.6667 4.76872 13.3911 3.76349 16.0046L0.401306 29.065L4.06916 30.7579L8.93197 16.3333V47.9551C8.93197 49.1766 9.92218 50.1667 11.1435 50.1667H11.3871C12.6086 50.1667 13.5986 49.1765 13.5986 47.9551V31.5H15.932L16.1757 47.9878C16.1936 49.1963 17.1783 50.1667 18.3871 50.1667C19.6086 50.1667 20.5986 49.1765 20.5986 47.9551V16.3333L35.3873 9.17394L33.1299 6.07032Z" fill="#FD614B"/>
<path d="M1.93201 0H69.5987V2.33333H1.93201V0Z" fill="#565151"/>
<path d="M65.7388 56.0366C68.0346 54.8676 68.9483 52.0589 67.7793 49.763C66.6103 47.4672 63.8015 46.5535 61.5057 47.7225C59.2098 48.8915 58.2962 51.7003 59.4652 53.9961C59.9209 54.8912 60.6534 55.6153 61.5536 56.0607C59.4789 56.3544 57.9357 58.1284 57.932 60.2238V70H69.5987V60.2239C69.5944 58.0376 67.9174 56.2185 65.7388 56.0366Z" fill="#FD614B"/>
<path d="M47.0721 56.0366C49.3679 54.8676 50.2816 52.0589 49.1126 49.763C47.9436 47.4672 45.1348 46.5535 42.839 47.7225C40.5431 48.8915 39.6295 51.7003 40.7985 53.9961C41.2542 54.8912 41.9867 55.6153 42.8869 56.0607C40.8122 56.3544 39.269 58.1284 39.2653 60.2238V70H50.932V60.2239C50.9278 58.0376 49.2507 56.2185 47.0721 56.0366Z" fill="#27AE60"/>
<path d="M28.4054 56.0366C30.7013 54.8676 31.6149 52.0589 30.4459 49.763C29.2769 47.4672 26.4682 46.5535 24.1723 47.7225C21.8765 48.8915 20.9628 51.7003 22.1318 53.9961C22.5876 54.8912 23.3201 55.6153 24.2203 56.0607C22.1455 56.3544 20.6023 58.1284 20.5987 60.2238V70H32.2654V60.2239C32.2611 58.0376 30.584 56.2185 28.4054 56.0366Z" fill="#FECD0D"/>
<path d="M9.73876 56.0366C12.0346 54.8676 12.9483 52.0589 11.7793 49.763C10.6103 47.4672 7.80151 46.5535 5.50565 47.7225C3.2098 48.8915 2.29615 51.7003 3.46515 53.9961C3.92088 54.8912 4.6534 55.6153 5.55363 56.0607C3.47886 56.3544 1.93565 58.1284 1.93201 60.2238V70H13.5987V60.2239C13.5944 58.0376 11.9174 56.2185 9.73876 56.0366Z" fill="#8CE2FF"/>
</svg>
